<svg width="20" height="20" viewBox="0 0 20 20" fill="none" xmlns="http://www.w3.org/2000/svg">
<g clip-path="url(#clip0_1901_610)">
<path d="M14.9999 3.33301H4.99992C4.07944 3.33301 3.33325 4.0792 3.33325 4.99967V14.9997C3.33325 15.9201 4.07944 16.6663 4.99992 16.6663H14.9999C15.9204 16.6663 16.6666 15.9201 16.6666 14.9997V4.99967C16.6666 4.0792 15.9204 3.33301 14.9999 3.33301Z" stroke="#424242" stroke-width="1.4" stroke-linecap="round" stroke-linejoin="round"/>
<path d="M12.5 7.5H7.5V12.5H12.5V7.5Z" stroke="#424242" stroke-width="1.4" stroke-linecap="round" stroke-linejoin="round"/>
<path d="M7.5 0.833008V3.33301" stroke="#424242" stroke-width="1.4" stroke-linecap="round" stroke-linejoin="round"/>
<path d="M12.5 0.833008V3.33301" stroke="#424242" stroke-width="1.4" stroke-linecap="round" stroke-linejoin="round"/>
<path d="M7.5 16.667V19.167" stroke="#424242" stroke-width="1.4" stroke-linecap="round" stroke-linejoin="round"/>
<path d="M12.5 16.667V19.167" stroke="#424242" stroke-width="1.4" stroke-linecap="round" stroke-linejoin="round"/>
<path d="M16.6667 7.5H19.1667" stroke="#424242" stroke-width="1.4" stroke-linecap="round" stroke-linejoin="round"/>
<path d="M16.6667 11.667H19.1667" stroke="#424242" stroke-width="1.4" stroke-linecap="round" stroke-linejoin="round"/>
<path d="M0.833252 7.5H3.33325" stroke="#424242" stroke-width="1.4" stroke-linecap="round" stroke-linejoin="round"/>
<path d="M0.833252 11.667H3.33325" stroke="#424242" stroke-width="1.4" stroke-linecap="round" stroke-linejoin="round"/>
</g>
<defs>
<clipPath id="clip0_1901_610">
<rect width="20" height="20" fill="white"/>
</clipPath>
</defs>
</svg>
