<svg width="16" height="16" viewBox="0 0 16 16" fill="none" xmlns="http://www.w3.org/2000/svg">
<g clip-path="url(#clip0_1850_332)">
<path d="M4.66659 7.33301L7.33325 1.33301C7.86369 1.33301 8.37239 1.54372 8.74747 1.91879C9.12254 2.29387 9.33325 2.80257 9.33325 3.33301V5.99967H13.1066C13.2999 5.99749 13.4913 6.03734 13.6676 6.11649C13.844 6.19563 14.001 6.31216 14.1278 6.45802C14.2547 6.60387 14.3483 6.77556 14.4021 6.96117C14.456 7.14679 14.4689 7.34191 14.4399 7.53301L13.5199 13.533C13.4717 13.8509 13.3102 14.1407 13.0652 14.349C12.8202 14.5573 12.5081 14.67 12.1866 14.6663H4.66659M4.66659 7.33301V14.6663M4.66659 7.33301H2.66659C2.31296 7.33301 1.97382 7.47348 1.72378 7.72353C1.47373 7.97358 1.33325 8.31272 1.33325 8.66634V13.333C1.33325 13.6866 1.47373 14.0258 1.72378 14.2758C1.97382 14.5259 2.31296 14.6663 2.66659 14.6663H4.66659" stroke="white" stroke-width="1.4" stroke-linecap="round" stroke-linejoin="round"/>
</g>
<defs>
<clipPath id="clip0_1850_332">
<rect width="16" height="16" fill="white"/>
</clipPath>
</defs>
</svg>
